<svg width="30" height="30" viewBox="0 0 30 30" fill="none" xmlns="http://www.w3.org/2000/svg">
<path d="M25 21.2503V14.3154C25 13.6475 24.9994 13.3133 24.9182 13.0025C24.8462 12.7271 24.7281 12.4665 24.5682 12.2309C24.3878 11.9651 24.1369 11.7447 23.6343 11.3049L17.6343 6.0549C16.701 5.2383 16.2344 4.8302 15.7092 4.6749C15.2465 4.53805 14.7533 4.53805 14.2905 4.6749C13.7658 4.83008 13.2998 5.23779 12.368 6.05317L6.36597 11.3049C5.8633 11.7447 5.61255 11.9651 5.43213 12.2309C5.27224 12.4665 5.15319 12.7271 5.08121 13.0025C5 13.3133 5 13.6475 5 14.3154V21.2503C5 22.4152 5 22.9974 5.1903 23.4568C5.44404 24.0694 5.9304 24.5567 6.54297 24.8104C7.0024 25.0007 7.58482 25.0007 8.74968 25.0007C9.91453 25.0007 10.4976 25.0007 10.957 24.8104C11.5696 24.5567 12.0558 24.0695 12.3096 23.4569C12.4999 22.9975 12.5 22.4151 12.5 21.2502V20.0002C12.5 18.6195 13.6193 17.5002 15 17.5002C16.3807 17.5002 17.5 18.6195 17.5 20.0002V21.2502C17.5 22.4151 17.5 22.9975 17.6903 23.4569C17.944 24.0695 18.4304 24.5567 19.043 24.8104C19.5024 25.0007 20.0848 25.0007 21.2497 25.0007C22.4145 25.0007 22.9976 25.0007 23.457 24.8104C24.0696 24.5567 24.5558 24.0694 24.8096 23.4568C24.9999 22.9974 25 22.4152 25 21.2503Z" stroke="white" stroke-width="2" stroke-linecap="round" stroke-linejoin="round"/>
</svg>
