<svg width="30" height="31" viewBox="0 0 30 31" fill="none" xmlns="http://www.w3.org/2000/svg">
<path d="M21.25 21.8516C19.8693 21.8516 18.75 22.9709 18.75 24.3516C18.75 25.7323 19.8693 26.8516 21.25 26.8516C22.6307 26.8516 23.75 25.7323 23.75 24.3516C23.75 22.9709 22.6307 21.8516 21.25 21.8516ZM21.25 21.8516H11.6174C11.0411 21.8516 10.7524 21.8516 10.5151 21.749C10.3058 21.6586 10.1242 21.513 9.99192 21.3272C9.84363 21.1191 9.78398 20.8407 9.66593 20.2897L6.58936 5.93237C6.46855 5.3686 6.40733 5.08703 6.25732 4.87646C6.12502 4.69075 5.94346 4.54458 5.73415 4.45412C5.49682 4.35156 5.20974 4.35156 4.63317 4.35156H3.75M7.5 8.10156H23.5915C24.4937 8.10156 24.9444 8.10156 25.2472 8.28951C25.5125 8.45414 25.7066 8.71234 25.7913 9.01282C25.888 9.35585 25.7638 9.78902 25.5137 10.6559L23.783 16.6559C23.6334 17.1742 23.5587 17.4329 23.407 17.6252C23.2731 17.7949 23.0965 17.9278 22.8963 18.0094C22.6702 18.1016 22.4014 18.1016 21.8651 18.1016H9.66309M10 26.8516C8.61929 26.8516 7.5 25.7323 7.5 24.3516C7.5 22.9709 8.61929 21.8516 10 21.8516C11.3807 21.8516 12.5 22.9709 12.5 24.3516C12.5 25.7323 11.3807 26.8516 10 26.8516Z" stroke="white" stroke-width="2" stroke-linecap="round" stroke-linejoin="round"/>
</svg>
